<?xml version="1.0" encoding="UTF-8"?>
<svg xmlns="http://www.w3.org/2000/svg" viewBox="0 0 1148 640" role="img" aria-label="Banyan">
<g fill="#199063" transform="translate(0 640) scale(0.1 -0.1)">
<path d="M5675 5766 c-39 -17 -91 -77 -100 -114 -4 -19 1 -51 13 -86 15 -43
28 -63 60 -86 l42 -30 0 -368 c1 -269 4 -373 13 -388 7 -12 82 -96 167 -188
85 -91 156 -169 158 -174 1 -4 -63 -70 -144 -146 l-145 -139 -132 129 c-73 71
-190 183 -260 249 l-128 120 6 42 c7 50 -8 112 -32 136 -10 10 -36 29 -57 43
-32 21 -48 25 -90 22 -28 -3 -58 -8 -67 -12 -11 -5 -75 41 -227 164 -194 157
-211 173 -207 198 2 15 -6 56 -18 92 -19 56 -28 68 -62 87 -78 44 -181 19
-231 -56 -23 -35 -26 -48 -22 -98 3 -48 10 -64 36 -93 18 -19 32 -37 32 -41 0
-4 13 -12 29 -19 24 -9 44 -9 105 4 l76 16 118 -96 c64 -53 156 -129 204 -170
84 -71 87 -75 77 -102 -14 -36 -3 -88 27 -127 13 -18 24 -36 24 -41 0 -5 14
-18 30 -27 18 -11 30 -27 31 -40 5 -116 0 -327 -7 -327 -5 0 -40 13 -79 29
-38 16 -107 44 -153 62 -70 28 -84 37 -88 59 -3 14 -28 50 -55 79 l-50 54 -71
-7 c-40 -4 -82 -13 -94 -21 -12 -8 -34 -39 -50 -70 l-27 -56 19 -57 c22 -70
53 -105 105 -122 47 -16 83 -7 160 40 l46 28 95 -38 c188 -76 250 -109 312
-168 34 -31 118 -108 189 -171 l127 -114 0 -127 0 -127 61 -69 c33 -38 64 -69
67 -69 4 0 5 97 3 215 -2 155 -7 222 -17 241 -7 14 -86 92 -176 171 -90 80
-171 155 -181 166 -17 18 -20 45 -24 220 l-6 200 23 12 c23 12 30 6 144 -111
67 -69 183 -190 259 -270 l137 -146 0 -894 1 -894 -143 -283 c-159 -316 -128
-279 -313 -377 -249 -132 -252 -134 -269 -170 -25 -51 -55 -437 -37 -459 17
-20 75 -21 90 -2 7 8 19 83 27 168 8 84 17 173 22 197 l7 44 160 83 160 82 6
-68 c9 -92 44 -163 117 -241 71 -74 82 -71 82 25 0 50 -5 67 -32 109 -28 44
-32 60 -36 136 -5 111 9 153 134 404 l96 191 43 -80 c24 -43 52 -92 62 -109
59 -97 74 -125 88 -171 32 -104 61 -135 186 -199 135 -68 302 -156 308 -161 3
-3 14 -84 40 -318 10 -86 24 -109 67 -109 35 0 54 27 54 76 0 37 -26 298 -36
365 -7 46 -46 84 -139 133 -44 24 -132 71 -195 105 l-115 62 -145 288 -145
289 -1 870 c0 479 2 880 5 892 3 12 120 142 260 288 192 201 258 264 270 259
41 -19 201 3 201 27 0 5 12 28 26 51 22 35 26 50 22 97 l-4 56 60 50 c34 28
125 102 203 166 l142 116 58 -10 c32 -5 62 -13 67 -17 14 -14 58 11 106 59 44
45 45 47 45 113 0 52 -5 73 -21 94 -40 54 -70 69 -138 69 -89 0 -129 -28 -157
-113 -12 -35 -19 -75 -16 -88 4 -22 -11 -38 -117 -124 -66 -54 -161 -131 -209
-171 -81 -66 -90 -71 -113 -60 -48 21 -108 14 -162 -21 -65 -42 -87 -87 -79
-162 l5 -53 -70 -63 -70 -63 -70 69 c-38 38 -109 112 -158 164 l-88 96 -7 350
-6 350 44 37 c67 55 86 146 45 218 -38 68 -138 98 -213 65z"/>
<path d="M6908 4370 c-25 -15 -89 -107 -89 -127 0 -10 6 -45 13 -77 l14 -60
67 -34 c85 -43 118 -39 180 21 33 32 47 54 56 93 12 48 11 54 -14 100 -42 77
-60 89 -140 92 -39 1 -78 -2 -87 -8z"/>
<path d="M3592 3735 l-42 -43 133 -125 c73 -68 144 -130 157 -137 18 -9 83
-13 231 -14 l206 -1 -70 -77 c-38 -42 -76 -79 -84 -82 -8 -4 -140 -6 -293 -6
-266 0 -279 1 -285 19 -3 11 -23 35 -44 54 -32 29 -48 35 -104 41 -93 10 -138
-15 -173 -99 -44 -107 41 -225 162 -225 57 0 99 22 140 74 l29 36 310 0 309 0
136 135 137 135 199 0 198 0 81 -82 c44 -46 111 -117 148 -159 l67 -76 0 -444
c0 -410 -2 -447 -19 -485 -26 -58 -74 -109 -126 -133 -43 -20 -60 -21 -370
-21 l-326 0 -48 -25 c-77 -39 -464 -265 -483 -282 -26 -23 -22 -60 8 -79 29
-20 34 -18 224 89 52 30 145 82 205 116 l110 62 88 -2 c48 -1 90 -5 92 -9 3
-5 -24 -43 -58 -87 -35 -43 -69 -87 -74 -98 -11 -20 -53 -238 -53 -274 0 -15
11 -22 52 -30 38 -9 53 -9 59 0 4 6 15 61 24 121 19 117 16 111 120 245 95
123 72 113 258 113 151 0 166 2 215 25 106 49 184 131 222 232 21 56 22 72 24
508 1 248 0 465 -2 483 -5 34 -116 165 -293 347 l-78 80 -519 5 -519 5 -113
108 c-62 59 -115 107 -119 106 -3 -1 -25 -20 -49 -44z"/>
<path d="M7771 3714 c-39 -37 -71 -72 -71 -79 0 -13 74 -85 88 -85 9 0 142
132 142 141 0 7 -77 89 -84 89 -2 0 -36 -30 -75 -66z"/>
<path d="M7100 3560 c-459 -4 -518 -7 -539 -22 -40 -28 -330 -350 -346 -385
-14 -29 -16 -92 -13 -500 l3 -468 34 -73 c39 -83 117 -164 198 -203 44 -22 63
-24 218 -27 105 -2 175 -8 183 -14 7 -7 50 -57 95 -112 l82 -101 26 -128 c15
-71 29 -130 31 -133 3 -2 28 1 57 8 35 8 51 16 51 27 0 9 -11 73 -24 143 l-24
128 -70 92 c-39 51 -69 95 -67 98 2 4 46 6 97 6 l93 -1 175 -99 c313 -177 315
-178 343 -167 30 12 42 42 28 69 -9 18 -331 212 -477 288 l-65 34 -327 0
c-295 0 -331 2 -367 19 -52 24 -121 99 -134 147 -7 25 -11 198 -11 483 l0 444
107 116 c58 64 123 133 143 153 l38 37 204 1 203 0 134 -135 134 -135 313 0
312 0 22 -34 c31 -52 77 -76 142 -76 97 0 159 60 166 160 4 53 1 65 -22 101
-38 57 -78 73 -157 65 -62 -7 -65 -9 -109 -61 l-45 -54 -287 0 -286 -1 -76 83
-75 82 217 5 c207 5 219 6 250 28 17 13 32 29 32 36 0 15 -73 87 -85 84 -6 -2
-242 -5 -525 -8z"/>
<path d="M5686 1104 c-3 -9 -6 -35 -6 -60 0 -50 0 -50 162 -137 95 -52 117
-56 141 -29 33 36 22 59 -51 106 -70 45 -228 136 -236 136 -2 0 -7 -7 -10 -16z"/>
</g>
<g fill="#1da6d7" transform="translate(0 640) scale(0.1 -0.1)">
<path d="M5510 5595 c-19 -7 -237 -79 -485 -160 -247 -80 -463 -151 -478 -157
-25 -10 -27 -14 -21 -42 3 -17 10 -38 15 -48 10 -18 9 -18 184 40 50 17 264
87 477 156 213 70 390 130 393 135 9 15 -19 86 -35 88 -8 1 -31 -4 -50 -12z"/>
<path d="M5901 5573 c-6 -21 -11 -43 -11 -48 0 -6 73 -34 163 -63 89 -29 306
-100 482 -158 455 -151 404 -138 415 -108 6 14 13 36 16 49 6 23 -5 27 -514
194 -285 94 -524 171 -530 171 -6 0 -16 -17 -21 -37z"/>
<path d="M5837 5478 c-34 -27 -36 -32 -23 -47 7 -9 111 -155 230 -326 119
-170 227 -323 240 -340 l23 -30 41 28 42 27 -42 59 c-24 33 -86 121 -138 197
-203 294 -236 341 -279 402 -25 34 -47 62 -50 62 -4 -1 -23 -15 -44 -32z"/>
<path d="M5577 5468 c-120 -164 -469 -664 -470 -675 -1 -9 61 -53 74 -53 4 0
39 44 77 98 37 53 150 213 249 354 l182 258 -33 25 c-42 32 -50 32 -79 -7z"/>
<path d="M4010 4895 c-202 -191 -206 -194 -240 -188 -129 25 -226 -47 -225
-166 1 -52 21 -103 49 -122 5 -4 -16 -91 -45 -194 l-54 -188 -48 -12 c-143
-36 -183 -216 -68 -306 l32 -25 -27 -157 c-15 -87 -25 -160 -22 -162 3 -3 25
-8 50 -11 l45 -6 21 113 c11 63 24 136 28 162 5 36 12 51 28 57 47 19 116 97
125 141 6 30 12 33 130 75 l123 44 159 -148 c88 -81 177 -155 197 -164 33 -15
76 -18 364 -18 l327 0 205 -217 206 -218 -3 -545 -2 -545 -32 -67 c-60 -128
-163 -200 -333 -233 -135 -27 -142 -33 -265 -197 l-110 -147 -84 -41 c-52 -25
-90 -38 -100 -34 -56 25 -158 38 -191 24 -66 -27 -110 -116 -96 -193 8 -45 58
-105 103 -123 42 -18 107 -18 141 0 59 31 102 96 102 156 0 23 7 30 38 43 20
8 38 14 40 12 1 -1 -2 -40 -7 -85 -5 -48 -5 -93 0 -106 17 -46 103 -40 113 8
3 13 12 73 21 133 17 121 11 108 140 279 88 117 79 112 235 141 190 36 335
160 411 350 l24 60 3 570 3 571 -56 59 c-31 33 -67 76 -79 95 -31 47 -316 351
-353 376 -23 15 -52 20 -153 24 l-124 5 -57 145 c-32 80 -61 151 -66 159 -8
12 -19 10 -66 -13 l-56 -26 28 -78 c16 -42 38 -102 50 -132 12 -30 21 -56 21
-57 0 -2 -67 -3 -148 -3 l-149 0 -121 111 c-67 61 -122 114 -122 118 0 4 24
15 53 25 152 54 237 91 237 103 0 8 -6 29 -14 48 l-14 33 -109 -38 c-59 -21
-139 -50 -178 -64 -46 -17 -73 -22 -81 -15 -21 17 -119 328 -107 340 7 7 80
-20 241 -89 127 -55 234 -97 238 -93 7 7 34 71 34 81 0 8 -62 36 -302 136 -94
38 -170 76 -172 84 -23 77 -33 62 184 270 110 106 200 198 200 204 0 13 -47
66 -58 65 -4 0 -99 -87 -212 -194z m-280 -538 c0 -7 22 -82 50 -167 27 -85 46
-157 42 -161 -4 -3 -47 -21 -96 -38 l-89 -32 -24 23 c-13 12 -21 29 -18 36 3
8 26 85 50 171 25 86 47 162 50 169 6 16 35 16 35 -1z"/>
<path d="M7226 5055 l-27 -34 78 -73 c323 -304 328 -309 326 -342 -5 -56 -13
-75 -36 -82 -23 -7 -450 -184 -454 -188 -3 -2 25 -59 40 -83 5 -8 33 0 95 27
78 34 341 146 368 157 28 11 20 -40 -27 -182 -28 -85 -56 -158 -62 -164 -8 -6
-67 11 -186 55 -96 36 -177 62 -181 57 -4 -4 -13 -25 -20 -46 -6 -21 -25 -48
-41 -59 -16 -12 -28 -27 -27 -34 2 -6 48 -51 103 -99 55 -49 101 -92 103 -95
2 -4 -20 -28 -49 -54 l-51 -46 -150 0 c-139 0 -150 1 -145 18 3 9 26 70 50
135 l45 117 -53 25 c-28 14 -56 25 -61 25 -5 0 -36 -71 -70 -158 l-60 -157
-125 -5 c-92 -4 -132 -9 -150 -21 -13 -9 -96 -93 -184 -187 l-160 -171 -3 111
c-3 132 -25 101 226 321 l172 152 163 71 162 71 -3 44 c-4 67 -16 72 -92 39
-175 -77 -230 -98 -236 -89 -3 5 -3 28 1 49 4 22 4 99 0 171 l-8 130 -51 -3
-51 -3 -3 -201 -2 -202 -79 -68 c-43 -38 -128 -112 -189 -164 -72 -61 -118
-109 -132 -136 -20 -40 -20 -55 -20 -805 0 -645 2 -774 15 -822 53 -202 217
-352 430 -393 151 -28 140 -20 250 -169 l100 -134 22 -132 c16 -97 26 -134 40
-145 23 -17 54 -18 78 0 16 12 18 23 12 114 l-7 100 40 -15 c36 -14 40 -20 40
-51 0 -53 29 -101 79 -134 40 -26 53 -29 104 -26 64 5 98 25 135 78 30 45 31
138 1 186 -24 40 -77 74 -113 74 -33 0 -113 -18 -141 -31 -16 -8 -39 -1 -104
29 l-83 39 -109 146 c-60 81 -119 153 -132 162 -13 8 -74 26 -136 40 -187 41
-271 100 -335 234 l-31 66 -3 543 -3 543 185 197 c101 108 194 207 207 219 24
22 30 22 365 25 l341 3 34 26 c19 15 54 47 79 73 25 25 50 46 55 46 6 -1 60
-45 120 -100 61 -55 115 -100 121 -100 6 0 31 -21 56 -47 68 -73 255 -243 266
-243 5 0 22 17 38 37 l28 37 -50 44 c-148 132 -172 152 -182 152 -5 0 -32 24
-58 53 -27 29 -95 95 -152 147 l-104 93 54 54 54 54 124 -45 c125 -44 125 -44
131 -79 4 -25 21 -50 57 -86 29 -28 59 -51 66 -51 18 0 21 -10 41 -130 8 -52
20 -119 26 -148 l11 -53 41 6 c23 4 45 10 49 14 4 3 -5 75 -19 159 l-26 153
36 30 c46 38 72 104 63 161 -13 82 -64 134 -145 147 l-35 6 -53 187 -53 186
24 36 c90 133 -27 305 -181 266 l-45 -11 -114 108 c-63 59 -156 147 -207 195
-51 48 -97 87 -103 88 -7 0 -24 -16 -38 -35z m620 -870 l52 -180 -22 -22 -21
-23 -102 36 c-86 31 -100 39 -92 53 9 17 70 207 89 279 8 32 15 42 28 40 13
-2 30 -48 68 -183z m-528 -140 c56 -20 102 -40 102 -44 0 -4 -14 -20 -30 -36
l-30 -29 -33 30 c-17 16 -56 52 -86 78 -29 27 -47 47 -40 44 8 -3 60 -22 117
-43z"/>
<path d="M4415 5015 c-5 -2 -21 -6 -35 -9 l-26 -5 38 -302 c20 -166 39 -308
42 -316 4 -10 17 -12 48 -7 24 4 44 8 46 9 2 2 -1 43 -7 91 -65 567 -62 554
-106 539z"/>
<path d="M7026 4958 c-3 -35 -11 -94 -16 -133 -5 -38 -19 -146 -30 -240 -12
-93 -25 -178 -30 -187 -9 -16 -4 -18 49 -18 60 0 60 0 65 33 13 83 66 528 66
555 0 36 -2 38 -56 46 l-41 7 -7 -63z"/>
<path d="M5810 4747 c0 -2 15 -16 33 -33 l32 -29 -29 33 c-28 30 -36 37 -36
29z"/>
<path d="M4750 4469 c-74 -54 -136 -105 -138 -113 -2 -8 9 -28 25 -45 l28 -31
115 85 c63 47 126 93 139 103 23 17 23 19 8 48 -31 60 -32 59 -177 -47z"/>
<path d="M6574 4534 c-20 -25 -25 -40 -18 -50 5 -8 68 -57 139 -109 l130 -94
32 37 c18 20 33 39 33 42 0 5 -53 43 -222 162 l-67 48 -27 -36z"/>
<path d="M5595 4190 c10 -11 20 -20 23 -20 3 0 -3 9 -13 20 -10 11 -20 20 -23
20 -3 0 3 -9 13 -20z"/>
<path d="M4258 3413 c7 -3 16 -2 19 1 4 3 -2 6 -13 5 -11 0 -14 -3 -6 -6z"/>
<path d="M4199 3173 l-24 -28 28 24 c15 14 27 26 27 28 0 8 -8 1 -31 -24z"/>
<path d="M5281 2424 c0 -11 3 -14 6 -6 3 7 2 16 -1 19 -3 4 -6 -2 -5 -13z"/>
<path d="M5843 1747 c-1 -60 -31 -156 -61 -196 -14 -19 -54 -66 -90 -105 -35
-39 -76 -95 -90 -125 -22 -48 -25 -67 -23 -147 1 -51 -3 -101 -8 -111 -10 -18
-31 -289 -31 -395 0 -47 4 -59 22 -72 30 -21 54 -20 76 2 15 15 21 48 31 178
7 87 14 200 16 249 3 104 20 207 42 249 9 17 37 53 62 80 107 116 155 190 153
239 -1 30 -65 169 -86 187 -10 7 -13 0 -13 -33z"/>
</g></svg>
