<?xml version="1.0" encoding="UTF-8"?>
<svg xmlns="http://www.w3.org/2000/svg" viewBox="0 0 928 927" role="img" aria-label="Banyan">
<g fill="#199063" transform="translate(0 927) scale(0.1 -0.1)">
<path d="M4617 8369 c-116 -27 -209 -141 -193 -236 21 -126 31 -154 62 -169
17 -8 47 -28 67 -45 l37 -30 0 -532 c1 -612 -9 -548 110 -674 295 -310 375
-397 378 -407 1 -7 -52 -66 -119 -132 -67 -65 -154 -152 -193 -192 -39 -41
-79 -78 -90 -84 -16 -9 -43 14 -191 159 -94 92 -265 257 -379 367 -173 167
-205 202 -200 219 14 43 5 135 -17 186 -18 44 -30 55 -85 86 -35 20 -66 40
-69 45 -10 15 -93 12 -150 -6 l-53 -17 -83 66 c-46 37 -183 147 -304 244
l-219 178 -1 55 c-1 30 -9 84 -19 120 -14 51 -26 73 -58 102 -95 88 -243 80
-341 -18 -51 -52 -71 -109 -65 -188 5 -59 9 -68 59 -129 65 -79 121 -108 173
-89 18 7 52 12 77 12 24 0 55 7 67 16 22 15 25 14 79 -33 31 -26 71 -59 88
-73 18 -14 101 -81 185 -150 83 -69 173 -141 198 -161 70 -54 73 -59 61 -104
-19 -68 -7 -123 45 -202 29 -45 59 -79 79 -89 18 -9 34 -18 36 -20 2 -2 6
-119 8 -260 l4 -256 -23 5 c-27 6 -402 158 -435 175 -12 7 -26 27 -31 45 -5
18 -33 63 -62 100 -63 78 -109 100 -181 86 -24 -4 -59 -8 -77 -9 -32 0 -111
-45 -112 -62 0 -4 -13 -36 -30 -70 -16 -34 -30 -70 -30 -80 0 -34 52 -173 73
-196 29 -31 86 -60 134 -68 45 -7 134 25 210 76 54 37 41 39 228 -38 302 -124
285 -113 544 -346 129 -116 256 -230 281 -253 l45 -42 5 -189 5 -189 60 -68
c33 -37 72 -82 87 -99 14 -17 29 -28 33 -24 11 11 6 577 -6 619 -8 34 -82 139
-97 139 -4 0 -25 17 -47 38 -22 21 -89 81 -149 132 -61 52 -143 126 -183 165
-70 67 -74 73 -83 130 -6 33 -10 169 -10 301 l0 242 31 12 c30 13 32 12 86
-41 30 -30 132 -135 226 -234 93 -99 218 -229 277 -290 59 -60 126 -132 149
-158 l41 -48 -2 -1302 -3 -1302 -130 -255 c-71 -140 -163 -322 -205 -405 l-75
-150 -60 -33 c-33 -19 -125 -68 -205 -110 -350 -184 -333 -174 -362 -222 -22
-37 -29 -64 -37 -150 -13 -135 -29 -313 -37 -417 l-6 -82 31 -32 c27 -26 37
-30 64 -25 55 11 69 34 78 133 15 162 49 476 51 478 38 29 465 244 472 238 3
-4 6 -31 6 -62 0 -68 23 -168 50 -222 45 -88 181 -239 216 -239 14 0 24 56 24
140 0 61 -3 69 -45 131 -40 58 -47 74 -54 140 -11 99 -5 202 16 269 9 30 85
191 168 357 l150 303 65 -128 c36 -70 78 -144 94 -165 40 -53 111 -192 129
-253 17 -57 47 -118 74 -150 31 -36 76 -62 336 -194 138 -71 264 -139 279
-152 29 -25 25 1 69 -398 21 -199 20 -195 61 -216 38 -20 84 -10 105 22 19 30
14 132 -21 440 -19 165 -27 208 -45 238 -28 44 -59 63 -489 291 -85 45 -139
80 -147 95 -8 14 -61 122 -119 240 -57 118 -128 260 -157 315 -30 55 -71 136
-91 180 l-38 81 0 1164 c0 641 0 1220 0 1288 l0 122 98 103 c260 273 653 677
659 677 2 0 17 -7 33 -15 23 -12 39 -13 81 -5 28 6 70 10 91 10 39 0 98 26 98
43 0 4 18 36 41 70 40 60 41 63 36 127 -3 36 -7 72 -9 80 -3 15 53 67 186 175
28 22 129 104 225 183 196 159 166 148 314 116 95 -20 131 -8 186 62 23 30 46
54 51 54 14 0 30 60 30 114 0 74 -17 122 -58 168 -47 52 -102 78 -171 78 -127
0 -193 -47 -235 -169 -17 -52 -26 -97 -24 -124 l3 -44 -165 -133 c-91 -73
-194 -159 -230 -190 -97 -84 -198 -160 -212 -160 -7 0 -31 7 -53 15 -22 8 -61
14 -87 15 -40 0 -58 -7 -122 -50 -54 -36 -81 -62 -96 -90 -27 -54 -35 -116
-20 -170 l12 -45 -98 -92 c-55 -51 -104 -93 -110 -93 -10 0 -448 444 -464 470
-3 5 -7 238 -8 518 l-3 509 59 43 c54 40 60 48 80 114 27 87 27 118 1 176 -34
75 -86 117 -171 138 -52 13 -49 13 -101 1z"/>
<path d="M6360 6328 c-28 -15 -117 -122 -132 -158 -7 -19 -4 -50 14 -124 22
-95 25 -100 63 -124 45 -28 150 -72 174 -72 67 0 189 95 209 162 5 18 15 51
21 73 12 38 11 44 -32 125 -30 59 -53 90 -75 103 -42 24 -205 34 -242 15z"/>
<path d="M1546 5407 l-59 -61 174 -168 c229 -221 234 -224 356 -233 53 -4 192
-6 309 -3 118 2 214 2 214 -1 0 -3 -51 -59 -113 -123 l-113 -118 -412 0 -412
0 -19 38 c-45 88 -91 118 -203 132 -70 8 -94 8 -120 -3 -146 -61 -197 -259
-97 -380 48 -59 120 -91 199 -91 97 2 153 35 219 132 l22 32 452 0 451 0 188
190 187 190 103 2 c107 2 244 2 409 -1 l96 -1 70 -72 c74 -77 229 -247 301
-331 l43 -49 -3 -652 -3 -651 -29 -59 c-36 -74 -110 -146 -185 -183 l-56 -28
-480 0 c-473 0 -481 0 -520 -22 -54 -29 -595 -343 -667 -387 -60 -36 -76 -64
-64 -111 7 -29 59 -59 87 -50 19 6 259 139 399 221 36 21 121 68 190 106 l125
68 137 0 c77 0 138 -4 138 -9 0 -5 -35 -55 -77 -111 -43 -56 -90 -118 -105
-138 -22 -30 -32 -65 -53 -182 -51 -287 -51 -270 -11 -270 12 0 46 -7 75 -16
29 -8 54 -14 56 -12 2 2 13 59 25 128 41 241 38 234 131 351 46 58 104 133
129 167 l45 61 215 1 c237 0 286 8 390 60 70 35 185 140 229 208 17 26 43 79
58 117 l28 70 3 685 c2 641 1 687 -15 717 -19 35 -274 320 -425 475 -70 72
-101 97 -127 102 -18 3 -354 6 -747 6 l-713 0 -75 66 c-41 36 -76 69 -78 73
-6 14 -196 181 -204 179 -5 -1 -36 -28 -68 -61z"/>
<path d="M7595 5366 l-109 -103 53 -56 c29 -31 62 -59 73 -63 16 -5 42 15 124
97 57 57 104 107 104 111 0 4 -12 14 -27 23 -16 9 -41 34 -57 56 -17 21 -35
39 -40 39 -6 -1 -60 -47 -121 -104z"/>
<path d="M7370 5160 c-9 -6 -289 -10 -738 -10 -636 0 -728 -2 -757 -16 -34
-16 -106 -88 -255 -254 -47 -52 -118 -130 -158 -173 -40 -43 -85 -97 -100
-120 l-27 -41 -2 -660 c-2 -443 1 -678 8 -711 15 -70 71 -186 116 -244 53 -67
144 -138 233 -180 l75 -36 215 -2 c118 -2 227 -3 242 -3 23 0 39 -15 89 -77
33 -43 77 -98 98 -122 106 -128 103 -122 139 -311 18 -97 37 -182 41 -189 7
-11 17 -11 57 3 26 9 58 16 70 16 13 0 25 4 29 9 5 9 -47 321 -65 392 -6 20
-45 81 -88 135 -86 110 -122 159 -122 168 0 3 61 6 136 6 l137 0 151 -82 c83
-45 221 -122 306 -171 203 -117 244 -137 277 -137 47 0 73 25 73 70 0 44 -14
61 -73 91 -22 12 -137 78 -256 148 -237 140 -355 207 -415 235 -37 17 -74 19
-515 20 l-476 1 -56 28 c-84 41 -143 98 -181 175 l-33 67 -3 657 -3 658 128
138 c70 76 162 174 203 219 l75 82 308 3 308 2 186 -192 185 -192 453 0 453 0
41 -55 c58 -77 117 -109 200 -109 104 0 188 53 228 142 48 104 18 229 -71 297
-53 40 -90 47 -184 34 -91 -12 -89 -11 -170 -112 l-47 -58 -412 3 -412 3 -109
115 -109 115 61 7 c33 4 170 7 303 7 169 0 249 4 265 12 40 21 98 70 98 83 0
14 -113 126 -127 126 -4 0 -15 -5 -23 -10z"/>
<path d="M4587 1613 c-3 -5 -8 -42 -12 -83 -5 -56 -3 -79 7 -92 22 -27 342
-198 372 -198 38 0 65 17 77 47 20 54 -2 76 -173 178 -87 52 -161 95 -164 95
-3 0 -25 14 -49 30 -47 32 -51 34 -58 23z"/>
</g>
<g fill="#1da6d7" transform="translate(0 927) scale(0.1 -0.1)">
<path d="M4340 8105 c-36 -12 -186 -62 -335 -110 -148 -48 -425 -139 -615
-201 -190 -63 -376 -124 -415 -136 -38 -12 -73 -26 -76 -30 -6 -9 6 -72 23
-120 8 -21 14 -26 27 -19 16 9 219 76 606 202 349 113 890 292 894 296 9 7
-19 117 -31 129 -10 10 -27 7 -78 -11z"/>
<path d="M4890 8057 c-19 -64 -27 -76 -68 -106 -79 -58 -80 -49 16 -184 161
-229 213 -302 465 -665 93 -133 173 -242 178 -242 8 0 119 68 119 73 0 1 -19
30 -43 64 -23 33 -79 115 -124 181 -45 67 -128 186 -185 266 -57 80 -132 188
-168 241 -36 53 -95 137 -132 186 -38 50 -68 95 -68 101 0 6 11 8 28 4 61 -15
1444 -472 1473 -487 19 -9 26 5 53 99 14 50 14 52 -4 52 -10 0 -113 31 -227
69 -114 37 -350 115 -523 171 -173 57 -405 133 -515 170 -282 94 -249 93 -275
7z"/>
<path d="M4415 7908 c-56 -79 -206 -291 -298 -423 -39 -55 -84 -119 -101 -142
-17 -24 -56 -79 -86 -123 -30 -44 -85 -123 -122 -175 -38 -52 -68 -101 -68
-108 0 -15 100 -76 116 -70 6 2 67 84 135 181 115 165 245 351 303 432 227
318 285 404 278 415 -9 17 -88 75 -102 75 -6 0 -30 -28 -55 -62z"/>
<path d="M2400 7323 c-30 -30 -109 -105 -175 -166 -66 -62 -177 -167 -246
-235 -120 -117 -128 -123 -150 -111 -40 21 -159 16 -212 -10 -104 -50 -161
-163 -137 -270 14 -61 24 -84 57 -121 l23 -26 -29 -104 c-16 -58 -41 -145 -55
-195 -15 -49 -36 -125 -49 -167 -19 -67 -25 -78 -44 -78 -44 0 -131 -41 -170
-80 -105 -107 -92 -296 27 -378 28 -19 39 -34 40 -52 0 -24 -16 -118 -58 -347
l-18 -103 30 -5 c17 -3 52 -7 79 -9 43 -4 47 -3 47 18 0 13 11 83 24 157 13
74 30 169 36 212 12 70 15 78 39 84 14 3 60 41 102 84 67 67 77 83 83 123 4
25 9 46 10 46 2 0 41 14 87 31 186 68 248 89 262 89 8 0 114 -92 236 -205 122
-112 243 -217 269 -232 l47 -28 470 -2 c259 -2 480 -5 491 -8 12 -3 106 -96
210 -207 104 -112 191 -205 194 -208 3 -3 50 -54 105 -114 l100 -109 3 -721
c2 -495 -1 -741 -8 -786 -33 -194 -144 -346 -315 -433 -48 -25 -80 -34 -269
-77 -153 -34 -158 -39 -313 -243 -75 -100 -148 -197 -162 -215 -19 -24 -62
-51 -150 -93 -106 -51 -127 -57 -140 -46 -18 15 -73 32 -141 42 -25 4 -47 11
-50 15 -9 12 -66 -9 -116 -42 -98 -66 -137 -207 -85 -308 32 -63 68 -99 126
-126 55 -26 124 -31 186 -13 85 26 157 119 168 217 6 55 7 57 51 79 65 33 74
31 66 -15 -3 -21 -9 -84 -12 -139 -6 -93 -5 -102 14 -121 31 -31 68 -37 108
-19 40 20 45 35 74 247 12 85 28 165 36 178 27 41 274 359 293 376 12 11 62
24 137 36 188 30 269 60 389 145 169 120 294 326 319 525 4 38 12 1548 7 1603
0 10 -5 16 -9 13 -11 -6 -168 164 -184 199 -18 39 -173 209 -418 456 -120 122
-139 129 -349 129 l-146 0 -56 143 c-31 78 -72 181 -90 229 -19 49 -40 88 -47
88 -8 0 -47 -16 -87 -35 l-74 -36 40 -112 c22 -62 47 -132 56 -157 8 -25 22
-57 29 -72 8 -15 14 -32 14 -38 0 -7 -71 -10 -215 -10 l-214 0 -178 160 c-98
89 -179 164 -180 168 -2 4 94 43 212 87 142 52 215 84 215 93 0 29 -23 92 -39
105 -17 15 -49 5 -390 -120 l-123 -45 -24 23 c-14 14 -35 63 -53 119 -16 52
-49 150 -72 217 -37 104 -41 124 -29 138 9 11 22 14 39 10 24 -6 360 -147 471
-198 126 -58 179 -75 187 -64 5 7 20 36 33 65 28 63 36 54 -105 113 -457 191
-560 238 -567 261 -4 13 -12 41 -18 64 l-12 40 78 75 c475 454 514 492 514
501 0 12 -70 96 -85 102 -6 2 -35 -21 -65 -51z m-625 -1118 c41 -137 103 -322
116 -348 6 -10 9 -21 7 -23 -3 -2 -68 -26 -145 -53 l-141 -50 -32 31 c-22 21
-31 37 -27 52 4 20 133 468 142 494 3 7 15 12 26 10 18 -2 27 -21 54 -113z"/>
<path d="M6855 7362 c-5 -4 -27 -26 -47 -49 l-38 -43 118 -107 c64 -59 164
-152 222 -208 58 -55 141 -135 184 -177 l80 -76 -12 -40 c-7 -21 -12 -51 -12
-66 0 -29 11 -23 -180 -101 -63 -26 -176 -73 -250 -105 -74 -31 -165 -68 -202
-81 -66 -23 -67 -23 -90 -4 l-23 20 21 -25 c11 -14 31 -47 45 -75 44 -92 30
-91 207 -15 86 37 198 84 247 105 50 20 128 54 175 75 83 37 85 38 104 20 19
-19 19 -20 -12 -102 -18 -46 -52 -147 -77 -224 -26 -81 -54 -149 -66 -159 -18
-17 -22 -17 -87 8 -69 27 -213 81 -360 135 -45 16 -85 26 -88 21 -3 -5 -12
-32 -20 -61 -12 -40 -27 -64 -65 -100 l-50 -47 148 -131 c81 -72 152 -137 157
-144 10 -15 13 -12 -77 -93 l-59 -53 -219 0 c-145 0 -219 4 -219 10 0 6 8 27
19 48 10 20 38 91 61 157 24 66 49 132 56 146 12 24 11 27 -9 36 -12 6 -44 21
-72 34 -85 40 -85 40 -91 21 -9 -25 -142 -371 -161 -414 l-15 -36 -167 -4
c-223 -4 -211 2 -449 -251 -103 -110 -205 -221 -227 -248 -22 -26 -43 -48 -47
-48 -14 -1 -9 323 5 341 6 9 60 58 118 109 354 314 477 419 490 419 9 0 346
143 394 167 17 9 33 20 36 26 6 9 -23 132 -33 143 -3 2 -27 -5 -54 -17 -27
-12 -121 -50 -209 -86 -88 -36 -166 -67 -172 -70 -10 -4 -13 51 -13 256 l0
261 -32 -1 c-18 0 -55 -4 -81 -7 l-49 -7 -3 -265 c-1 -146 -3 -274 -4 -286 -1
-28 -34 -61 -181 -188 -348 -299 -380 -329 -402 -375 l-23 -46 0 -1120 c0
-1067 1 -1123 19 -1190 39 -145 124 -286 233 -385 115 -105 250 -164 457 -200
63 -11 122 -23 131 -26 13 -5 215 -267 292 -379 15 -22 28 -79 49 -210 24
-147 33 -184 51 -202 45 -47 113 -38 140 18 12 24 7 100 -13 237 -8 50 -1 52
66 19 44 -22 45 -24 51 -77 7 -71 20 -100 64 -148 97 -109 277 -107 373 3 45
51 62 98 62 174 0 55 -5 75 -30 117 -30 54 -98 108 -150 119 -29 6 -188 -26
-222 -45 -26 -14 -31 -13 -115 26 -43 20 -94 43 -115 51 -23 9 -51 35 -79 71
-23 31 -61 82 -84 112 -23 30 -74 98 -112 150 -106 142 -116 149 -238 175 -44
10 -96 21 -115 25 -19 4 -51 11 -70 15 -57 12 -174 74 -235 124 -71 59 -137
161 -170 264 l-25 78 0 762 1 762 212 226 c117 124 249 266 293 315 l81 89
494 5 c574 6 518 -5 652 126 45 44 88 84 94 88 8 4 72 -46 172 -135 88 -78
173 -148 188 -155 15 -6 49 -34 74 -61 173 -181 376 -366 392 -356 8 4 33 30
55 56 l42 48 -88 77 c-48 42 -120 107 -161 144 -41 38 -81 68 -89 68 -8 0 -72
58 -142 128 -71 71 -169 164 -219 207 -50 44 -91 82 -91 86 0 3 35 40 77 82
73 72 78 74 107 65 54 -18 300 -109 316 -117 8 -5 16 -19 18 -32 7 -62 14 -89
23 -89 5 0 38 -29 72 -63 34 -35 74 -67 89 -70 18 -5 27 -15 31 -34 2 -16 16
-100 31 -187 15 -88 29 -163 31 -166 2 -4 5 -25 6 -47 3 -46 0 -45 110 -28
l46 7 -8 41 c-13 65 -61 347 -66 395 -4 27 -2 42 5 42 23 0 86 67 108 115 28
59 32 153 9 208 -19 46 -69 104 -106 123 -16 8 -54 20 -86 27 -46 11 -58 18
-64 38 -38 129 -139 499 -139 511 0 9 7 21 16 29 36 29 57 92 58 169 1 67 -3
80 -30 124 -62 101 -175 146 -289 114 l-53 -15 -59 57 c-32 31 -137 130 -233
220 -96 90 -205 193 -242 227 -67 64 -75 69 -93 55z m783 -1049 c5 -10 30 -94
56 -188 26 -93 58 -206 72 -250 l24 -79 -31 -32 c-26 -27 -35 -31 -58 -24 -39
12 -255 90 -259 94 -1 2 22 79 52 172 30 93 63 198 72 234 10 36 22 71 27 78
13 17 35 15 45 -5z m-767 -428 c52 -20 124 -47 162 -61 37 -14 67 -29 67 -33
0 -4 -20 -27 -45 -51 l-44 -43 -53 45 c-79 67 -194 177 -187 178 4 0 49 -16
100 -35z"/>
<path d="M6544 7262 c-6 -4 -16 -52 -23 -107 -6 -55 -16 -131 -21 -170 -5 -38
-14 -117 -20 -175 -7 -58 -15 -130 -20 -160 -5 -30 -14 -100 -20 -155 -7 -55
-16 -110 -20 -122 -8 -18 -5 -22 18 -27 55 -12 124 -10 132 4 5 8 11 41 15 74
14 136 46 395 55 451 5 33 17 124 26 202 19 160 17 167 -44 177 -20 4 -44 9
-52 11 -8 3 -20 1 -26 -3z"/>
<path d="M2677 7248 c-23 -8 -27 -14 -23 -37 9 -45 35 -249 56 -441 12 -102
28 -228 36 -281 7 -53 14 -111 14 -129 l0 -33 61 7 c80 9 90 14 84 40 -3 11
-9 64 -15 116 -10 102 -24 228 -39 355 -5 44 -17 143 -26 220 -23 209 -18 195
-73 194 -26 0 -60 -5 -75 -11z"/>
<path d="M4780 6857 c0 -2 15 -16 33 -33 l32 -29 -29 33 c-28 30 -36 37 -36
29z"/>
<path d="M4940 6685 c30 -30 57 -55 59 -55 3 0 -19 25 -49 55 -30 30 -57 55
-59 55 -3 0 19 -25 49 -55z"/>
<path d="M3269 6502 c-86 -64 -178 -132 -203 -149 -25 -18 -46 -41 -46 -50 0
-26 76 -106 92 -97 7 4 81 58 163 119 83 62 167 123 188 136 20 13 37 30 37
37 0 11 -68 123 -73 122 -1 0 -72 -53 -158 -118z"/>
<path d="M5886 6589 c-33 -38 -58 -87 -52 -97 2 -4 42 -34 88 -67 46 -33 134
-97 196 -143 62 -46 116 -82 121 -80 5 2 27 27 49 57 l41 54 -22 17 c-12 9
-96 70 -187 135 -91 64 -175 126 -186 137 -21 19 -22 19 -48 -13z"/>
<path d="M3970 6526 c0 -2 8 -10 18 -17 15 -13 16 -12 3 4 -13 16 -21 21 -21
13z"/>
<path d="M4030 6465 c13 -14 26 -25 28 -25 3 0 -5 11 -18 25 -13 14 -26 25
-28 25 -3 0 5 -11 18 -25z"/>
<path d="M4170 6326 c0 -2 8 -10 18 -17 15 -13 16 -12 3 4 -13 16 -21 21 -21
13z"/>
<path d="M4245 6260 c10 -11 20 -20 23 -20 3 0 -3 9 -13 20 -10 11 -20 20 -23
20 -3 0 3 -9 13 -20z"/>
<path d="M4345 6170 c21 -22 41 -40 44 -40 3 0 -13 18 -34 40 -21 22 -41 40
-44 40 -3 0 13 -18 34 -40z"/>
<path d="M4420 6097 c0 -2 15 -16 33 -33 l32 -29 -29 33 c-28 30 -36 37 -36
29z"/>
<path d="M4300 5956 c0 -2 8 -10 18 -17 15 -13 16 -12 3 4 -13 16 -21 21 -21
13z"/>
<path d="M4332 4905 c0 -16 2 -22 5 -12 2 9 2 23 0 30 -3 6 -5 -1 -5 -18z"/>
<path d="M2494 4658 l-19 -23 23 19 c21 18 27 26 19 26 -2 0 -12 -10 -23 -22z"/>
<path d="M2424 4588 l-29 -33 33 29 c30 28 37 36 29 36 -2 0 -16 -15 -33 -32z"/>
<path d="M5624 4588 l-19 -23 23 19 c21 18 27 26 19 26 -2 0 -12 -10 -23 -22z"/>
<path d="M8259 4463 c-13 -16 -12 -17 4 -4 9 7 17 15 17 17 0 8 -8 3 -21 -13z"/>
<path d="M4808 2534 c5 -79 -33 -214 -80 -283 -20 -31 -76 -99 -124 -151 -123
-135 -132 -149 -163 -242 -22 -62 -26 -88 -19 -102 13 -24 6 -215 -8 -224 -10
-7 -30 -257 -41 -528 -5 -114 -4 -123 16 -143 32 -32 103 -29 129 4 22 27 25
49 42 295 7 85 15 179 19 208 5 33 4 55 -2 59 -11 7 -1 171 12 187 5 6 12 42
16 80 12 118 37 166 146 281 134 141 204 257 201 329 -1 44 -91 232 -126 265
l-21 20 3 -55z"/>
</g>
</svg>
